<?xml version="1.0" encoding="UTF-8" standalone="no"?>
<svg xmlns="http://www.w3.org/2000/svg" viewBox="590 200 150 200" width="959" height="593">
  <title>Blank map of the United States, territories not included</title>
<defs>
<style type="text/css">
.state {fill:#042c55}                        /* default color for all states not specified below */
.borders {stroke:#FFFFFF; stroke-width:1}    /* color and width of borders between states */
.dccircle {display:yes}                      /* set display to yes to show the circle for the District of Columbia, or none to hide it */
.separator1 {stroke:#B0B0B0; stroke-width:2} /* color and width of lines around Alaska and Hawaii */

/* Individual states can be colored as follows:
.ks,.mt,.pa {fill:#0000FF}
.ca,.de {fill:#FF0000}
In this example, Kansas, Montana and Pennsylvania are colored blue, and California and Delaware are colored red.
Place this code in the empty space below. */



</style>
</defs>

<g class="state">



<!-- The scale of Alaska is 42% that of the contiguous United States, so its area is reduced to about 17.6%. The Islands of Four Mountains, Andreanof Islands, Rat Islands and Near Islands are not shown. -->









<path class="in" d="m 629.2,214.8 -5.1,2.3 -4.7,-1.4 4.1,50.2 -1,5.2 v 2 l 2.4,3.5 v .7 l -.3,.9 .9,1.9 -.3,2.4 -1.6,1.8 -1.3,4.2 -3.8,5.3 -.1,7 h -1 l .9,1.9 1.1,.8 .6,-1 -.7,-1.7 4.6,-.5 .2,1.2 1.1,.2 .4,-.9 -.6,-1.3 .3,-.8 1.3,.8 1.7,-.4 1.7,.6 3.4,2.1 1.8,-2.8 3.5,-2.2 3,3.3 1.6,-2.1 .3,-2.7 3.8,-2.3 .2,1.3 1.9,1.2 3,-.2 1.2,-.7 .1,-3.4 2.5,-3.7 4.6,-4.4 -.1,-1.7 1.2,-3.8 2.2,1 6.7,-4.5 -.4,-1.7 -1.5,-2.1 1,-1.9 -6.6,-57.2 -.1,-1.4 -32.4,3.4 z">
<title>Indiana</title></path>



<path class="ky" d="m 692.1,322.5 -20.5,1.4 -5.2,.8 -17.4,1 -2.6,.8 -22.6,2 -.7,-.6 h -3.7 l 1.2,3.2 -.6,.9 -23.3,1.5 1,-2.7 1.4,.9 .7,-.4 1.2,-4.1 -1,-1 1,-2 .2,-.9 -1.3,-.8 -.3,-1.8 4,-3.7 6.9,3 1.5,-.3 .4,-2.4 -1.7,-1.8 .4,-3.3 1,-.5 1.2,.6 .6,-1.2 3.7,-.6 .1,-.9 -1.5,-2.2 -.1,-1.1 2.2,-2.7 0,-.9 1.1,.8 .6,-1 -.7,-1.7 4.6,-.5 .2,1.2 1.1,.2 .4,-.9 -.6,-1.3 .3,-.8 1.3,.8 1.7,-.4 1.7,.6 3.4,2.1 1.8,-2.8 3.5,-2.2 3,3.3 1.6,-2.1 .3,-2.7 3.8,-2.3 .2,1.3 1.9,1.2 3,-.2 1.2,-.7 .1,-3.4 2.5,-3.7 4.6,-4.4 -.1,-1.7 1.2,-3.8 2.2,1 6.7,-4.5 -.4,-1.7 -1.5,-2.1 1,-1.9 1.3,.5 2.2,.1 1.9,-.8 2.9,1.2 2.2,3.4 v 1 l 4.1,.7 2.3,-.2 1.9,2.1 2.2,.2 v -1 l 1.9,-.8 3,.8 1.2,.8 1.3,-.7 h .9 l .6,-1.7 3.4,-1.8 .5,.8 .8,2.9 3.5,1.4 1.2,2.1 -.1,1.1 .6,1 -.6,3.6 1.9,1.6 .8,1.1 1,.6 -.1,.9 4.4,5.6 h 1.4 l 1.5,1.8 1.2,.3 1.4,-.1 -4.9,6.6 -2.9,1 -3,3 -.4,2.2 -2.1,1.3 -.1,1.7 -1.4,1.4 -1.8,.5 -.5,1.9 -1,.4 -6.9,4.2 z m -98,11.3 -.7,-.7 .2,-1 h 1.1 l .7,.7 -.3,1 z">
<title>Kentucky</title></path>




<path class="tn" d="m 620.9,365.1 45.7,-4 22.9,-2.9 .1,-4.9 1.4,-1.3 1.5,.1 1.3,-.9 .8,-4.1 4.6,-3 3.6,-.5 3.2,-2.6 .5,-1.2 4.7,-2.4 .6,-3.4 4,-3.3 .8,.2 .1,1.5 .8,.8 1.5,-1.2 .7,-2.1 3.5,-2.5 2.6,1.1 2.4,-5.2 1.4,-1.2 1.5,.1 0,-5.2 .3,-.7 -4.6,.5 -.2,1 -28.9,3.3 -5.6,1.4 -20.5,1.4 -5.2,.8 -17.4,1 -2.6,.8 -22.6,2 -.7,-.6 h -3.7 l 1.2,3.2 -.6,.9 -23.3,1.5 -.8,1 -.8,-.7 h -1 v 1.3 l .6,1 -.1,1 -1.4,.5 1.4,1.5 -.8,.7 -1.7,-.2 .6,1 1.2,1.1 v .7 l -1.2,.5 -1,2 .1,.6 1.4,1 -.4,.7 h -1.5 v .5 l .9,.9 .1,.8 -1.4,.2 -.5,.8 -1.6,.2 -.9,.9 .6,.9 1.1,-.1 .5,.9 -1.6,1.3 .4,1.5 -2,-.6 -.1,.7 .4,1.1 -.3,1.4 -1.3,-.8 -.8,.8 1.1,.1 .1,1.5 -.6,1 1.1,.9 -.3,1.5 .8,.7 -.7,1 -1.2,-.5 -.9,2.2 -1.6,.7 z">
<title>Tennessee</title></path>


</g>

<g class="borders" fill="none">

<path class="al-tn" d="m 620.9,365.1 45.7,-4"/>


<path class="ar-tn" d="m 582.6,367.7 1.6,-.7 .9,-2.2 1.2,.5 .7,-1 -.8,-.7 .3,-1.5 -1.1,-.9 .6,-1 -.1,-1.5 -1.1,-.1 .8,-.8 1.3,.8 .3,-1.4 -.4,-1.1 .1,-.7 2,.6 -.4,-1.5 1.6,-1.3 -.5,-.9 -1.1,.1 -.6,-.9 .9,-.9 1.6,-.2 .5,-.8 1.4,-.2 -.1,-.8 -.9,-.9 0,-.5 h 1.5 l .4,-.7 -1.4,-1 -.1,-.6"/>


<path class="ga-tn" d="m 666.6,361.1 22.9,-2.9"/>

<path class="il-in" d="m 619.4,215.7 4.1,50.2 -1,5.2 v 2 l 2.4,3.5 v .7 l -.3,.9 .9,1.9 -.3,2.4 -1.6,1.8 -1.3,4.2 -3.8,5.3 -.1,7 h -1 l .9,1.9"/>


<path class="in-ky" d="m 618.3,302.7 1.1,.8 .6,-1 -.7,-1.7 4.6,-.5 .2,1.2 1.1,.2 .4,-.9 -.6,-1.3 .3,-.8 1.3,.8 1.7,-.4 1.7,.6 3.4,2.1 1.8,-2.8 3.5,-2.2 3,3.3 1.6,-2.1 .3,-2.7 3.8,-2.3 .2,1.3 1.9,1.2 3,-.2 1.2,-.7 .1,-3.4 2.5,-3.7 4.6,-4.4 -.1,-1.7 1.2,-3.8 2.2,1 6.7,-4.5 -.4,-1.7 -1.5,-2.1 1,-1.9"/>

<path class="ky-tn" d="m 596.7,333.5 23.3,-1.5 .6,-.9 -1.2,-3.2 h 3.7 l .7,.6 22.6,-2 2.6,-.8 17.4,-1 5.2,-.8 20.5,-1.4 5.6,-1.4 m -103.6,12.7 h 1"/>


<path class="mo-tn" d="m 591.7,344.9 1,-2 1.2,-.5 v -.7 l -1.2,-1.1 -.6,-1 1.7,.2 .8,-.7 -1.4,-1.5 1.4,-.5 .1,-1 -.6,-1 0,-1.3 m 1,0 .8,.7 .8,-1"/>
<path class="ms-tn" d="m 582.6,367.7 38.3,-2.6"/>

<path class="nc-tn" d="m 731.1,317 0,5.2 -1.5,-.1 -1.4,1.2 -2.4,5.2 -2.6,-1.1 -3.5,2.5 -.7,2.1 -1.5,1.2 -.8,-.8 -.1,-1.5 -.8,-.2 -4,3.3 -.6,3.4 -4.7,2.4 -.5,1.2 -3.2,2.6 -3.6,.5 -4.6,3 -.8,4.1 -1.3,.9 -1.5,-.1 -1.4,1.3 -.1,4.9"/>


</g>





</svg>