<svg width="1042" height="692" version="1.1" xmlns="http://www.w3.org/2000/svg" desc="Created with imagetracer.js version 1.2.6" ><path fill="rgb(0,0,0)" stroke="rgb(0,0,0)" stroke-width="1" opacity="0.011764705882352941" d="M 546.5 49 L 572.5 49 L 581.5 51 Q 594.2 54.8 602 63.5 L 612 80.5 L 616 95.5 L 634 242.5 L 639 256.5 L 646.5 264 L 673.5 281 Q 683.9 286.1 701.5 284 L 705.5 283 L 704.5 285 L 700 287.5 L 698.5 290 L 692 291 L 690.5 294 L 686.5 295 Q 683.4 289.6 673.5 291 L 668.5 299 Q 659.1 296.4 654.5 289 L 649.5 288 Q 648 290.5 642.5 289 Q 629.2 281.8 620 270.5 L 616 262.5 L 612 246.5 L 612 239.5 L 610 231.5 L 610 223.5 L 609 222.5 L 609 215.5 L 608 214.5 L 608 207.5 L 607 206.5 L 607 199.5 L 606 198.5 L 604 174.5 L 603 173.5 L 603 166.5 L 602 165.5 L 602 158.5 L 601 157.5 L 601 150.5 L 600 149.5 L 600 142.5 L 599 141.5 L 595 105.5 L 590 89.5 L 580.5 78 Q 574.4 73.3 566 72 L 565 58.5 L 561.5 55 L 559.5 54 L 548.5 54 L 547.5 55 L 540.5 55 L 539.5 56 L 523.5 57 L 522.5 58 L 506.5 59 L 505.5 60 L 498.5 60 L 497.5 61 L 481.5 62 L 480.5 63 L 444.5 67 L 444.5 66 L 468.5 59 L 486.5 57 L 487.5 56 L 494.5 56 L 495.5 55 L 502.5 55 L 503.5 54 L 510.5 54 L 511.5 53 L 527.5 52 L 528.5 51 L 545.5 50 L 546.5 49 Z " /><path fill="rgb(0,0,0)" stroke="rgb(0,0,0)" stroke-width="1" opacity="0.011764705882352941" d="M 435.5 69 L 437 69.5 L 424.5 78 L 418.5 80 L 413.5 80 L 414.5 78 L 435.5 69 Z " /><path fill="rgb(0,0,0)" stroke="rgb(0,0,0)" stroke-width="1" opacity="0.011764705882352941" d="M 399.5 94 L 401 99.5 L 401 109.5 L 402 110.5 L 402 119.5 L 403 120.5 L 403 129.5 L 405 140.5 L 405 150.5 L 406 151.5 L 406 160.5 L 407 161.5 L 407 170.5 L 408 171.5 L 408 180.5 L 410 191.5 L 410 201.5 L 411 202.5 L 411 211.5 L 412 212.5 L 412 221.5 L 414 232.5 L 416 262.5 L 414 272.5 L 410 278.5 L 409 286.5 L 413.5 294 L 417 296.5 L 417 307.5 Q 418.3 314.7 423 318.5 L 423 323.5 L 416 329.5 L 414 333.5 L 413 340.5 L 404.5 354 L 404 352.5 L 408 342.5 L 408 323.5 L 406 314.5 Q 407.6 304.4 405 298.5 L 406 297.5 L 406 275.5 Q 408.3 274.2 407 269.5 L 406 268.5 L 405 241.5 L 404 240.5 L 401 200.5 L 400 199.5 L 400 190.5 L 399 189.5 L 399 180.5 L 398 179.5 L 398 170.5 L 396 159.5 L 396 149.5 L 395 148.5 L 395 138.5 L 394 137.5 L 394 111.5 L 399.5 94 Z " /><path fill="rgb(0,0,0)" stroke="rgb(0,0,0)" stroke-width="1" opacity="0.011764705882352941" d="M 717.5 281 L 733.5 281 L 748.5 285 Q 762.5 291.5 772 302.5 L 781 315.5 L 796 346.5 L 821 377.5 L 826 390.5 L 826 405.5 Q 822.7 419.2 816 429.5 L 816 433.5 L 821.5 438 Q 834.3 439.7 843.5 445 L 855 455.5 L 861 469.5 L 861 488.5 Q 854.8 513.3 837.5 527 L 791.5 556 L 756.5 585 L 737.5 596 L 724 606.5 L 707 628.5 L 696.5 639 L 674.5 650 L 645.5 655 L 637.5 655 L 628.5 657 L 620.5 657 L 619.5 658 L 611.5 658 L 610.5 659 L 602.5 659 L 601.5 660 L 593.5 660 L 592.5 661 L 584.5 661 L 574.5 663 L 565.5 663 L 564.5 664 L 556.5 664 L 546.5 666 L 537.5 666 L 527.5 668 L 518.5 668 L 508.5 670 L 499.5 670 L 498.5 671 L 469.5 673 L 468.5 674 L 458.5 674 L 457.5 675 L 448.5 675 L 437.5 677 L 427.5 677 L 426.5 678 L 416.5 678 L 415.5 679 L 405.5 679 L 404.5 680 L 355.5 683 L 354.5 684 L 341.5 684 L 340.5 685 L 312.5 685 L 296.5 681 L 283 671.5 Q 276.5 664.5 274 653.5 L 273 638 L 297 637 L 298 643.5 L 304 654 Q 310.7 659.7 321.5 662 L 351.5 662 L 352.5 661 L 401.5 658 L 402.5 657 L 412.5 657 L 413.5 656 L 423.5 656 L 424.5 655 L 434.5 655 L 445.5 653 L 455.5 653 L 456.5 652 L 505.5 648 L 506.5 647 L 534.5 645 L 535.5 644 L 543.5 644 L 544.5 643 L 562.5 642 L 563.5 641 L 571.5 641 L 572.5 640 L 580.5 640 L 581.5 639 L 589.5 639 L 590.5 638 L 598.5 638 L 599.5 637 L 607.5 637 L 608.5 636 L 616.5 636 L 617.5 635 L 649.5 632 L 667.5 628 Q 681.8 622.3 691 611.5 L 710.5 588 L 745.5 565 L 776.5 539 L 818.5 512 L 829 501.5 L 834 492.5 L 836 483.5 L 834 474.5 L 827.5 467 L 816 463 L 817 460.5 L 817 446.5 L 816 443 L 802.5 444 L 777.5 449 L 771.5 449 L 772 447.5 L 777 437.5 L 796 414.5 L 800 404.5 L 800 393.5 L 795 382.5 L 776 356.5 L 762 328.5 L 751.5 315 L 734 303.5 Q 733.8 298.8 730.5 297 Q 724 297 721 293.5 L 720 290 Q 716.2 290.8 715 287.5 L 712 282.5 L 717.5 281 Z " /><path fill="rgb(0,0,0)" stroke="rgb(0,0,0)" stroke-width="1" opacity="0.011764705882352941" d="M 397.5 368 L 398 376.5 Q 391.6 382.1 394 396.5 Q 396.7 398.8 396 404.5 L 391 410.5 L 390 414.5 L 397 422.5 L 394.5 424 L 381.5 426 L 382 424.5 L 387 410.5 L 392 382.5 L 397.5 368 Z " /><path fill="rgb(0,0,0)" stroke="rgb(0,0,0)" stroke-width="1" opacity="0.011764705882352941" d="M 370.5 440 L 376 453.5 L 371.5 460 L 369.5 461 Q 363 455 352 453.5 Q 363.5 449 370.5 440 Z " /><path fill="rgb(0,0,0)" stroke="rgb(0,0,0)" stroke-width="1" opacity="0.011764705882352941" d="M 332.5 473 Q 335.8 477.5 335 485 L 329 487.5 Q 330.1 497.1 328 502 Q 321.5 500.8 319 504.5 L 318 508 L 316 507.5 L 325 492.5 L 332.5 473 Z " /><path fill="rgb(0,0,0)" stroke="rgb(0,0,0)" stroke-width="1" opacity="0.011764705882352941" d="M 307 520 Q 309.7 518.9 309 521.5 L 307 528.5 L 302 534.5 L 302 543.5 L 299 549.5 L 302 555.5 L 302 558.5 Q 300.3 568.8 293.5 574 L 291.5 575 L 291 572.5 L 294 564.5 L 299 539.5 L 307 520 Z " /><path fill="rgb(0,0,0)" stroke="rgb(0,0,0)" stroke-width="1" opacity="0.011764705882352941" d="M 289.5 580 L 290 585 L 286.5 587 L 287 585.5 L 289.5 580 Z " /><path fill="rgb(0,0,0)" stroke="rgb(0,0,0)" stroke-width="1" opacity="0.011764705882352941" d="M 285.5 588 L 286 590.5 L 285 594.5 L 282.5 597 L 282 595.5 L 285.5 588 Z " /><path fill="rgb(0,0,0)" stroke="rgb(0,0,0)" stroke-width="1" opacity="0.011764705882352941" d="M 276 611 L 281.5 613 L 285 616.5 L 286 622.5 Q 278 625 274 631.5 L 273.5 633 L 273 625.5 L 276 611 Z " /><path fill="rgb(0,0,0)" stroke="rgb(0,0,0)" stroke-width="1" opacity="0" d="M 0 0 L 1042 0 L 1042 692 L 0 692 L 0 0 Z M 547 49 L 546 50 L 529 51 L 528 52 L 512 53 L 511 54 L 504 54 L 503 55 L 496 55 L 495 56 L 488 56 L 487 57 L 469 59 L 444 67 L 440 67 L 438 69 L 423 74 L 413 80 L 407 79 L 401 75 L 398 75 Q 400 80 399 89 L 400 90 L 400 94 L 396 103 L 394 112 L 394 138 L 395 139 L 395 149 L 396 150 L 396 160 L 398 171 L 398 180 L 399 181 L 399 190 L 400 191 L 400 200 L 401 201 L 404 241 L 405 242 L 406 269 L 407 270 Q 408 274 406 276 L 406 298 L 405 299 Q 408 304 406 315 L 408 324 Q 410 343 404 355 L 399 358 Q 397 361 398 368 L 396 371 L 390 391 L 386 415 L 382 425 L 374 429 L 370 434 Q 369 438 371 440 Q 365 447 356 452 Q 352 456 343 454 L 339 456 Q 334 459 332 466 Q 331 471 333 473 Q 328 481 325 493 L 316 508 L 312 507 Q 306 506 305 509 Q 304 516 308 519 L 299 540 L 293 569 L 282 597 L 280 598 L 277 602 L 277 611 L 273 626 L 273 635 L 271 638 L 273 638 L 274 654 Q 276 665 283 672 L 297 681 L 313 685 L 341 685 L 342 684 L 355 684 L 356 683 L 405 680 L 406 679 L 416 679 L 417 678 L 427 678 L 428 677 L 438 677 L 449 675 L 458 675 L 459 674 L 469 674 L 470 673 L 499 671 L 500 670 L 509 670 L 519 668 L 528 668 L 538 666 L 547 666 L 557 664 L 565 664 L 566 663 L 575 663 L 585 661 L 593 661 L 594 660 L 602 660 L 603 659 L 611 659 L 612 658 L 620 658 L 621 657 L 629 657 L 638 655 L 646 655 L 675 650 L 697 639 L 707 629 L 724 607 L 738 596 L 757 585 L 792 556 L 838 527 Q 855 513 861 489 L 861 470 L 855 456 L 844 445 Q 834 440 822 438 L 816 434 L 816 430 Q 823 419 826 406 L 826 391 L 821 378 L 796 347 L 781 316 L 772 303 Q 759 286 734 281 L 718 281 L 717 282 Q 712 283 711 281 L 702 284 Q 684 286 674 281 L 647 264 L 639 257 L 634 243 L 616 96 L 612 81 L 602 64 Q 594 55 582 51 L 573 49 L 547 49 Z " /><path fill="rgb(202,210,201)" stroke="rgb(202,210,201)" stroke-width="1" opacity="0.9450980392156862" d="M 548.5 54 Q 561.5 51.5 565 58.5 L 568 90.5 L 569 91.5 L 569 98.5 L 572 115.5 L 572 123.5 L 573 124.5 L 573 131.5 L 574 132.5 L 574 139.5 L 575 140.5 L 575 147.5 L 576 148.5 L 576 155.5 L 579 172.5 L 579 180.5 L 580 181.5 L 580 188.5 L 581 189.5 L 581 196.5 L 582 197.5 L 582 204.5 L 585 221.5 L 585 229.5 L 586 230.5 L 586 237.5 L 587 238.5 L 587 245.5 L 588 246.5 L 588 253.5 L 590 265 Q 601.1 263.7 608.5 267 L 614.5 265 L 619 268.5 L 623 276.5 L 629 282.5 Q 629.5 288.1 633.5 290 L 642.5 290 L 652.5 288 L 661.5 296 L 668.5 299 L 673.5 291 L 680.5 291 L 688.5 295 L 692 292.5 Q 691.3 290.3 693.5 291 L 700 288.5 L 701.5 286 L 710.5 281 L 717.5 290 Q 720.8 288.9 720 291.5 L 722.5 295 L 730.5 297 L 733 299.5 Q 733.3 304.3 736.5 306 L 741 308 Q 742.1 310.7 739.5 310 L 737 311 L 741 328.5 L 749 336.5 L 759 357.5 L 765.5 364 Q 771.8 368.7 782.5 369 L 786 371.5 L 787 374.5 L 763.5 400 L 748 411.5 Q 746.9 419.9 741.5 424 L 739 425.5 L 738 433.5 L 736.5 435 L 727.5 437 L 726 438.5 Q 725.5 446 721.5 450 L 716.5 451 L 713.5 450 L 702 458.5 L 706.5 459 L 707.5 458 L 729.5 456 L 730.5 455 L 771.5 450 L 802.5 444 L 816 443 Q 818.4 448.9 817 460.5 Q 815.5 467.4 810.5 471 L 807 473.5 Q 803.4 485.9 794.5 493 Q 790.8 493.8 790 491.5 L 789 488 L 782.5 486 L 777 490.5 L 775 494.5 L 774 503.5 L 770.5 507 L 765.5 508 L 759 503.5 L 758.5 501 Q 758 507.5 753.5 510 Q 747.8 510.3 745 513.5 Q 746.2 523.2 740.5 526 L 734.5 527 L 722 537.5 L 710.5 550 L 703.5 551 Q 702 548.5 696.5 550 L 685.5 557 L 679 558 L 681 564.5 L 681 571.5 L 676.5 577 L 665.5 579 L 664 580.5 L 663 601 L 629.5 604 L 628.5 605 L 620.5 605 L 619.5 606 L 611.5 606 L 610.5 607 L 602.5 607 L 601.5 608 L 585.5 609 L 584.5 610 L 576.5 610 L 575.5 611 L 567.5 611 L 566.5 612 L 530.5 615 L 529.5 616 L 502.5 618 L 501.5 619 L 492.5 619 L 491.5 620 L 482.5 620 L 472.5 622 L 422.5 626 L 421.5 627 L 411.5 627 L 410.5 628 L 400.5 628 L 399.5 629 L 389.5 629 L 388.5 630 L 378.5 630 L 377.5 631 L 366.5 631 L 365.5 632 L 354.5 632 L 353.5 633 L 342.5 633 L 341.5 634 L 329.5 634 L 328.5 635 L 271.5 638 L 272 636.5 Q 274.1 628.6 280.5 625 L 286 622.5 Q 286.3 615.3 281.5 613 Q 277.5 613.5 277 610.5 Q 275.1 601.1 279.5 598 L 285 594.5 L 286 587.5 L 288.5 585 Q 291.9 585.9 290 580.5 L 289 578.5 L 290 575 Q 294.7 574.6 297 570.5 Q 301.6 565.1 302 555.5 L 299 547.5 Q 303.9 544.4 302 534.5 Q 308.2 530.2 309 520.5 Q 305 516.5 305 508.5 Q 306.3 505.8 311.5 507 L 318 508 L 320.5 503 L 328 502 Q 330.1 497.1 329 487.5 L 330.5 486 L 335 485 Q 335.8 476.6 332 471.5 L 332 465.5 Q 333.5 459 338.5 456 L 342.5 454 L 355.5 454 L 369.5 461 L 374 457.5 L 376 451.5 Q 369.9 445.6 370 433.5 L 373.5 429 L 379.5 426 L 394.5 424 L 397 422.5 Q 390.9 420 390 412.5 L 396 404.5 L 396 400.5 L 394 396.5 L 394 383.5 L 398 376.5 L 398 360.5 L 399 358 L 406 352.5 L 413 340.5 L 414 333.5 L 416 329.5 L 420.5 325 L 423 323.5 L 423 318.5 Q 418.3 314.7 417 307.5 L 417 296.5 L 414.5 294 L 411 291.5 Q 408.4 288.6 409 282.5 L 415 269.5 L 416 253.5 L 415 252.5 L 414 232.5 L 413 231.5 L 410 191.5 L 409 190.5 L 409 181.5 L 408 180.5 L 405 140.5 L 404 139.5 L 401 99.5 L 400 98.5 L 400 89.5 L 399 88.5 Q 399.8 79.9 398 75 L 400.5 75 L 409.5 80 L 418.5 80 Q 431.6 76.1 439.5 67 L 447.5 67 L 464.5 64 L 472.5 64 L 473.5 63 L 489.5 62 L 506.5 59 L 531.5 57 L 548.5 54 Z M 556 57 L 547 59 L 523 61 L 522 62 L 514 62 L 513 63 L 497 64 L 480 67 L 447 70 L 440 72 Q 432 81 419 84 L 411 84 L 403 82 L 406 122 L 407 123 L 407 132 L 408 133 L 408 142 L 409 143 L 409 153 L 410 154 L 410 163 L 411 164 L 411 173 L 412 174 L 412 183 L 413 184 L 413 193 L 414 194 L 414 204 L 416 215 L 416 224 L 417 225 L 417 234 L 418 235 L 418 244 L 419 245 L 419 255 L 420 256 L 418 273 L 413 283 L 414 289 L 418 291 Q 423 296 421 309 L 427 318 L 426 327 L 424 328 L 419 333 L 417 341 L 408 357 L 401 363 L 402 368 Q 403 380 398 385 L 398 397 L 399 398 Q 399 401 406 399 L 408 394 L 413 390 L 422 393 Q 424 394 423 391 Q 427 384 437 382 L 444 387 L 449 387 L 454 392 L 456 392 L 456 384 Q 457 381 462 382 L 463 380 L 469 377 L 473 373 L 475 373 L 477 377 L 482 379 L 483 383 L 486 384 L 485 379 L 486 376 L 490 373 L 491 369 L 497 364 L 502 357 L 505 357 L 512 364 L 517 365 L 519 367 Q 525 368 527 366 L 527 359 L 532 347 L 537 342 L 539 342 L 542 338 Q 541 331 544 328 L 549 327 L 556 321 L 552 313 L 554 304 L 561 299 L 569 306 L 571 306 L 571 300 L 576 296 L 588 296 L 589 295 L 589 290 L 584 283 L 584 278 L 586 272 L 586 261 L 585 260 L 585 253 L 582 236 L 582 229 L 581 228 L 581 221 L 580 220 L 580 212 L 579 211 L 579 204 L 578 203 L 578 196 L 577 195 L 577 188 L 576 187 L 574 163 L 573 162 L 573 155 L 572 154 L 572 147 L 571 146 L 571 139 L 570 138 L 570 131 L 569 130 L 569 123 L 568 122 L 567 106 L 566 105 L 566 98 L 565 97 L 561 61 L 556 57 Z M 592 268 L 589 272 L 588 277 L 588 283 L 591 286 L 593 292 L 592 298 L 591 299 L 575 300 Q 576 307 572 310 L 568 310 L 560 303 L 556 308 L 556 314 Q 561 316 559 324 L 555 326 L 553 329 L 548 331 L 546 333 Q 547 339 544 342 L 538 346 Q 532 352 530 363 L 531 366 L 530 369 L 524 371 L 518 371 L 508 366 L 504 361 L 502 364 L 498 367 Q 494 369 494 374 L 491 376 L 489 378 L 489 387 L 488 388 L 481 387 L 480 382 L 474 378 L 464 385 L 459 386 L 460 389 Q 461 395 457 396 L 453 396 L 448 391 Q 440 391 438 386 L 430 389 L 425 397 L 416 394 L 411 395 L 410 401 L 409 402 L 400 402 L 399 408 L 394 414 L 401 422 L 401 425 L 399 427 Q 386 427 378 431 L 374 435 L 376 445 L 380 452 Q 379 461 373 464 L 367 464 L 359 459 L 349 457 Q 347 459 343 458 L 340 460 L 336 466 L 336 472 L 339 481 L 338 487 Q 338 489 334 489 Q 331 490 333 492 Q 334 503 329 507 L 327 506 Q 323 505 322 508 L 325 509 L 375 507 L 376 506 L 388 506 L 389 505 L 401 505 L 406 504 L 403 495 L 403 491 L 409 487 Q 421 486 426 493 L 433 488 L 442 486 L 459 486 L 460 485 L 473 485 L 474 484 L 486 484 L 487 483 L 521 481 L 522 480 L 561 477 L 562 476 L 597 473 L 606 471 L 614 471 L 623 469 L 631 469 L 648 466 L 655 466 L 656 465 L 663 465 L 664 464 L 671 464 L 672 463 L 679 463 L 680 462 L 687 462 Q 688 460 693 461 L 713 446 L 719 447 L 723 437 L 728 433 L 734 432 L 735 431 Q 734 425 736 424 Q 735 421 738 422 Q 744 418 745 409 L 764 395 L 782 373 L 769 370 L 762 366 L 755 359 L 747 341 L 737 329 L 734 318 L 734 309 L 730 303 Q 727 299 722 299 L 717 295 Q 718 292 716 293 L 710 286 L 705 289 L 701 294 Q 694 293 695 296 L 689 299 L 684 298 L 677 294 L 674 299 L 669 303 Q 657 300 652 292 L 642 294 Q 634 295 630 292 L 619 278 L 615 269 L 609 271 L 592 268 Z M 809 447 L 784 452 L 751 456 L 750 457 L 743 457 L 721 461 L 699 463 L 692 465 L 685 465 L 677 467 L 638 471 L 637 472 L 621 473 L 620 474 L 613 474 L 612 475 L 559 480 L 558 481 L 549 481 L 548 482 L 539 482 L 538 483 L 529 483 L 528 484 L 519 484 L 518 485 L 508 485 L 507 486 L 471 488 L 470 489 L 455 489 L 454 490 L 438 490 L 428 497 L 416 491 L 407 491 L 410 503 L 409 506 L 407 508 L 372 510 L 371 511 L 356 511 L 355 512 L 313 512 L 309 511 L 312 518 L 311 530 L 306 535 Q 308 545 303 549 L 306 557 Q 305 568 299 575 L 293 578 L 294 581 L 294 586 L 290 590 L 287 599 L 283 601 Q 279 602 280 608 L 286 611 L 289 616 L 290 621 L 289 625 L 281 630 L 279 633 L 279 634 L 345 630 L 346 629 L 357 629 L 358 628 L 369 628 L 370 627 L 381 627 L 382 626 L 424 623 L 425 622 L 435 622 L 436 621 L 485 617 L 495 615 L 504 615 L 514 613 L 523 613 L 533 611 L 541 611 L 542 610 L 550 610 L 551 609 L 560 609 L 570 607 L 578 607 L 579 606 L 587 606 L 588 605 L 596 605 L 597 604 L 605 604 L 614 602 L 657 598 L 658 597 L 660 597 L 660 579 L 666 575 L 675 574 L 677 572 L 676 557 Q 679 553 686 553 Q 689 548 697 546 L 709 547 L 716 539 L 731 525 L 740 522 L 742 516 L 742 511 Q 745 507 752 507 Q 755 506 754 500 Q 755 496 760 497 L 765 504 L 770 503 L 773 490 L 781 483 L 790 484 L 794 489 Q 800 483 803 473 L 810 467 L 813 461 L 813 448 Q 813 446 809 447 Z " /><path fill="rgb(202,210,201)" stroke="rgb(202,210,201)" stroke-width="1" opacity="0.9450980392156862" d="M 467 171 L 474.5 171 L 475 171.5 L 475 207 L 467.5 207 L 467 206.5 L 467 171 Z " /><path fill="rgb(202,210,201)" stroke="rgb(202,210,201)" stroke-width="1" opacity="0.9450980392156862" d="M 482 171 Q 487.4 169.5 489 172.5 L 505.5 194 L 506 171 L 512.5 171 L 513 171.5 L 513 207 Q 505.8 208.5 504 203.5 L 489.5 184 L 489 207 L 482.5 207 L 482 206.5 L 482 171 Z " /><path fill="rgb(202,210,201)" stroke="rgb(202,210,201)" stroke-width="1" opacity="0.9450980392156862" d="M 612.5 338 L 616.5 344 L 623 345.5 Q 618 346.5 619 353.5 L 620 357 L 612.5 355 L 607 358 L 608 351.5 L 603.5 346 L 610 345 L 612.5 338 Z " /><path fill="rgb(202,210,201)" stroke="rgb(202,210,201)" stroke-width="1" opacity="0.9450980392156862" d="M 667.5 338 Q 670.5 339.5 667.5 341 Q 664.5 339.5 667.5 338 Z " /><path fill="rgb(202,210,201)" stroke="rgb(202,210,201)" stroke-width="1" opacity="0.9450980392156862" d="M 629 339 L 631 339.5 L 631 355 L 638.5 355 L 639 357 L 629 357 L 629 339 Z " /><path fill="rgb(202,210,201)" stroke="rgb(202,210,201)" stroke-width="1" opacity="0.9450980392156862" d="M 701.5 340 L 702 344 Q 707.2 342.3 706 346 L 702 346 L 702 355 L 706 355.5 L 702.5 357 L 700 354.5 Q 702 346.5 698 344.5 L 701 344 L 701.5 340 Z " /><path fill="rgb(202,210,201)" stroke="rgb(202,210,201)" stroke-width="1" opacity="0.9450980392156862" d="M 545 343 Q 547.7 341.9 547 344.5 L 549 348 L 557 349.5 L 552 355.5 L 553 361 L 546.5 359 L 541.5 362 L 541 354.5 L 539.5 353 L 536 350.5 L 544 347.5 L 545 343 Z " /><path fill="rgb(202,210,201)" stroke="rgb(202,210,201)" stroke-width="1" opacity="0.9450980392156862" d="M 645.5 344 L 650 345 L 651 351 L 642 351.5 L 644.5 355 Q 649.3 356.3 650.5 354 L 651 356 L 645.5 357 L 641 353.5 Q 639.5 346.5 643.5 345 L 645.5 344 Z M 645 346 L 643 349 L 650 349 L 650 348 Q 649 345 645 346 Z " /><path fill="rgb(202,210,201)" stroke="rgb(202,210,201)" stroke-width="1" opacity="0.9450980392156862" d="M 653 344 Q 655.7 342.9 655 345.5 L 657.5 349 Q 659.8 349.8 659 347.5 L 661 344 L 663 344.5 L 659 350.5 L 663 356.5 L 661 357 L 659 352 L 656 353.5 L 653.5 357 L 653 355.5 L 656 349.5 L 653 344 Z " /><path fill="rgb(202,210,201)" stroke="rgb(202,210,201)" stroke-width="1" opacity="0.9450980392156862" d="M 667.5 344 L 668 356.5 L 667 356.5 L 667.5 344 Z " /><path fill="rgb(202,210,201)" stroke="rgb(202,210,201)" stroke-width="1" opacity="0.9450980392156862" d="M 673.5 344 L 674.5 346 L 679.5 344 L 682 345 Q 683.9 349.3 683 357 L 681 356.5 L 681 347.5 Q 680 345 675.5 346 L 674 347.5 L 673.5 357 L 673.5 344 Z " /><path fill="rgb(202,210,201)" stroke="rgb(202,210,201)" stroke-width="1" opacity="0.9450980392156862" d="M 689.5 344 L 697 345.5 L 695 346 Q 696 349.8 693.5 351 Q 687.3 352.3 686 348.5 L 687.5 345 L 689.5 344 Z M 688 346 Q 686 352 693 350 L 694 348 Q 693 345 688 346 Z " /><path fill="rgb(202,210,201)" stroke="rgb(202,210,201)" stroke-width="1" opacity="0.9450980392156862" d="M 712.5 344 Q 717.3 344.3 719 347.5 Q 720.5 354.5 716.5 356 L 712.5 357 L 708 353.5 Q 706.5 346.5 710.5 345 L 712.5 344 Z M 712 346 L 709 350 L 710 354 Q 711 356 716 355 Q 718 354 717 348 Q 716 345 712 346 Z " /><path fill="rgb(202,210,201)" stroke="rgb(202,210,201)" stroke-width="1" opacity="0.9450980392156862" d="M 723.5 344 L 724.5 346 L 729.5 344 L 732 345 Q 733.9 349.3 733 357 L 731 356.5 L 731 347.5 Q 730 345 725.5 346 L 724 347.5 L 723.5 357 L 723.5 344 Z " /><path fill="rgb(202,210,201)" stroke="rgb(202,210,201)" stroke-width="1" opacity="0.9450980392156862" d="M 687.5 352 L 688 354 L 696 355 Q 697 358.8 694.5 360 L 688.5 361 L 686 360 L 685 357.5 Q 687.8 356.3 687.5 352 Z M 689 355 L 687 357 L 687 359 L 694 359 L 695 356 L 689 355 Z " /><path fill="rgb(202,210,201)" stroke="rgb(202,210,201)" stroke-width="1" opacity="0.9450980392156862" d="M 584.5 367 L 585 369.5 L 583 368.5 L 584.5 367 Z " /><path fill="rgb(202,210,201)" stroke="rgb(202,210,201)" stroke-width="1" opacity="0.9450980392156862" d="M 614.5 367 L 615 369.5 L 613 368.5 L 614.5 367 Z " /><path fill="rgb(202,210,201)" stroke="rgb(202,210,201)" stroke-width="1" opacity="0.9450980392156862" d="M 620.5 367 L 621 385.5 L 620 385.5 L 620.5 367 Z " /><path fill="rgb(202,210,201)" stroke="rgb(202,210,201)" stroke-width="1" opacity="0.9450980392156862" d="M 626.5 367 L 627 385.5 L 626 385.5 L 626.5 367 Z " /><path fill="rgb(202,210,201)" stroke="rgb(202,210,201)" stroke-width="1" opacity="0.9450980392156862" d="M 543 368 L 545 368.5 L 545 384 L 552.5 384 L 553 386 L 543 386 L 543 368 Z " /><path fill="rgb(202,210,201)" stroke="rgb(202,210,201)" stroke-width="1" opacity="0.9450980392156862" d="M 558.5 373 Q 563.6 372.4 565 375.5 L 566 380.5 L 563.5 385 L 558.5 386 L 555 383.5 L 554 378.5 L 556.5 374 L 558.5 373 Z M 558 375 Q 555 377 556 383 Q 558 385 563 384 L 564 382 L 563 377 Q 564 374 558 375 Z " /><path fill="rgb(202,210,201)" stroke="rgb(202,210,201)" stroke-width="1" opacity="0.9450980392156862" d="M 569.5 373 Q 569 380.6 571 384 Q 575.6 385.3 577 382.5 L 577 373.5 L 579 373 L 578.5 386 Q 577 382.5 575.5 385 L 571.5 386 L 569 383.5 L 569.5 373 Z " /><path fill="rgb(202,210,201)" stroke="rgb(202,210,201)" stroke-width="1" opacity="0.9450980392156862" d="M 583 373 L 585 373.5 L 585 386 L 583 385.5 L 583 373 Z " /><path fill="rgb(202,210,201)" stroke="rgb(202,210,201)" stroke-width="1" opacity="0.9450980392156862" d="M 592.5 373 L 597 374.5 Q 591.6 373.6 590 376.5 Q 592.1 380.1 597 380 Q 598 383.8 595.5 385 L 591.5 386 L 589 385 L 589.5 383 L 594.5 384 Q 598 382 593.5 380 Q 589.5 380.5 589 377.5 L 590.5 374 L 592.5 373 Z " /><path fill="rgb(202,210,201)" stroke="rgb(202,210,201)" stroke-width="1" opacity="0.9450980392156862" d="M 599.5 373 L 604.5 383 L 608 373 Q 610.7 371.9 610 374.5 L 604.5 386 Q 599.5 380.4 599.5 373 Z " /><path fill="rgb(202,210,201)" stroke="rgb(202,210,201)" stroke-width="1" opacity="0.9450980392156862" d="M 613 373 L 615 373.5 L 615 386 L 613 385.5 L 613 373 Z " /><path fill="rgb(202,210,201)" stroke="rgb(202,210,201)" stroke-width="1" opacity="0.9450980392156862" d="M 635.5 373 L 641 375.5 L 642 378.5 L 640.5 380 L 633 380 L 634.5 384 L 641 384.5 L 635.5 386 L 632 383.5 L 631 377.5 L 633.5 374 L 635.5 373 Z M 635 375 L 633 377 L 634 378 L 640 378 Q 642 373 635 375 Z " /><path fill="rgb(202,210,201)" stroke="rgb(202,210,201)" stroke-width="1" opacity="0.9450980392156862" d="M 465 417 L 473 417 L 473 430.5 L 474.5 431 L 485.5 417 L 499.5 417 L 502 419.5 L 508.5 432 L 516.5 417 L 524 417.5 L 512 436.5 L 512 450 L 504 450 L 504 436.5 L 494 419 L 490 421.5 L 482 433.5 L 494 450 L 486.5 450 L 485 448.5 L 475.5 436 L 473 436.5 L 473 450 L 465 450 L 465 417 Z " /><path fill="rgb(202,210,201)" stroke="rgb(202,210,201)" stroke-width="1" opacity="0.9450980392156862" d="M 460 542 L 486.5 542 L 487 547 L 478 547 L 478 574.5 L 477.5 575 L 470 575 L 470 547.5 L 469.5 547 L 460 547 L 460 542 Z " /><path fill="rgb(202,210,201)" stroke="rgb(202,210,201)" stroke-width="1" opacity="0.9450980392156862" d="M 491 542 Q 497.3 540.5 499 544.5 L 513.5 563 L 514 542 L 519.5 542 L 520 542.5 L 520 575 Q 512.7 576.3 511 570.5 L 498.5 554 L 498 575 L 491.5 575 L 491 574.5 L 491 542 Z " /><path fill="rgb(0,0,0)" stroke="rgb(0,0,0)" stroke-width="1" opacity="0.08627450980392157" d="M 566 72 Q 579.7 74.5 587 84.5 Q 592.7 93.3 595 105.5 L 599 141.5 L 600 142.5 L 600 149.5 L 601 150.5 L 601 157.5 L 602 158.5 L 602 165.5 L 603 166.5 L 603 173.5 L 604 174.5 L 606 198.5 L 607 199.5 L 607 206.5 L 608 207.5 L 608 214.5 L 609 215.5 L 609 222.5 L 610 223.5 L 610 231.5 L 612 239.5 L 612 246.5 L 614 256.5 L 619 267.5 L 616.5 266 L 612.5 265 L 607.5 267 Q 600.8 263.5 590 265 L 588 253.5 L 588 246.5 L 587 245.5 L 587 237.5 L 586 236.5 L 581 189.5 L 580 188.5 L 580 180.5 L 579 179.5 L 579 172.5 L 578 171.5 L 578 164.5 L 577 163.5 L 577 156.5 L 574 139.5 L 574 131.5 L 573 130.5 L 569 91.5 L 568 90.5 L 567 74.5 L 566 72 Z " /><path fill="rgb(0,0,0)" stroke="rgb(0,0,0)" stroke-width="1" opacity="0.08627450980392157" d="M 621.5 272 L 630.5 281 L 643 289.5 L 633.5 290 Q 629.4 288 629 282.5 L 623 276.5 L 621.5 272 Z " /><path fill="rgb(0,0,0)" stroke="rgb(0,0,0)" stroke-width="1" opacity="0.08627450980392157" d="M 741.5 308 L 754 317.5 L 762 328.5 L 779 361.5 L 787 371.5 L 784.5 370 L 771.5 367 Q 763.4 364.1 759 357.5 L 751 339.5 L 740 325.5 L 737 311 L 741 310 L 741.5 308 Z " /><path fill="rgb(0,0,0)" stroke="rgb(0,0,0)" stroke-width="1" opacity="0.08627450980392157" d="M 787.5 373 Q 794.8 380.2 799 390.5 Q 801.4 395.6 800 404.5 L 796 414.5 L 777 437.5 L 771 450 L 703.5 459 L 705.5 456 L 714.5 450 Q 715.8 452.2 720.5 451 Q 725.7 446.5 726 438 L 734.5 436 L 738 433.5 L 739 425.5 L 740.5 424 L 743 422.5 Q 747.4 418.9 748 411.5 L 752.5 407 Q 766 400 775 388.5 L 787.5 373 Z " /><path fill="rgb(0,0,0)" stroke="rgb(0,0,0)" stroke-width="1" opacity="0.08627450980392157" d="M 816.5 463 Q 827 464.4 832 471.5 L 834 474.5 L 836 483.5 Q 832.6 503.1 818.5 512 L 776.5 539 L 745.5 565 L 716.5 583 L 706 592.5 L 684.5 618 Q 676.1 625.1 664.5 629 L 642.5 633 L 635.5 633 L 634.5 634 L 626.5 634 L 625.5 635 L 617.5 635 L 616.5 636 L 608.5 636 L 607.5 637 L 599.5 637 L 598.5 638 L 590.5 638 L 589.5 639 L 581.5 639 L 580.5 640 L 572.5 640 L 562.5 642 L 553.5 642 L 552.5 643 L 544.5 643 L 534.5 645 L 515.5 646 L 505.5 648 L 456.5 652 L 455.5 653 L 402.5 657 L 401.5 658 L 352.5 661 L 351.5 662 L 321.5 662 Q 310.7 659.7 304 654 L 298 643.5 L 297 637 L 300.5 636 L 314.5 636 L 315.5 635 L 354.5 633 L 355.5 632 L 366.5 632 L 367.5 631 L 400.5 629 L 401.5 628 L 421.5 627 L 432.5 625 L 442.5 625 L 443.5 624 L 452.5 624 L 453.5 623 L 482.5 621 L 483.5 620 L 501.5 619 L 511.5 617 L 520.5 617 L 521.5 616 L 548.5 614 L 549.5 613 L 557.5 613 L 558.5 612 L 566.5 612 L 567.5 611 L 575.5 611 L 576.5 610 L 584.5 610 L 585.5 609 L 593.5 609 L 594.5 608 L 602.5 608 L 603.5 607 L 611.5 607 L 620.5 605 L 628.5 605 L 629.5 604 L 663 601 L 664 580.5 L 665.5 579 L 674.5 578 L 681 572.5 Q 681.9 562.9 679 558 L 685.5 557 L 696.5 550 L 702.5 550 Q 704 552.5 709.5 551 L 725.5 534 L 734.5 527 Q 741.4 527.9 743 523.5 Q 746 520.5 745 513.5 L 746.5 512 L 756 509 L 758.5 501 L 760 506 L 766.5 508 L 770.5 507 L 774 503.5 L 775 494.5 L 780.5 487 L 784.5 486 L 790 490.5 L 791.5 493 L 794.5 493 L 800 487.5 L 809.5 471 L 814 467.5 L 816.5 463 Z " /><path fill="rgb(0,128,99)" stroke="rgb(0,128,99)" stroke-width="1" opacity="1" d="M 669.5 335 Q 674.3 335.3 676 338.5 L 676.5 341 L 683.5 341 Q 684.8 343.3 689.5 342 Q 691 339.5 696.5 341 Q 697.8 343.3 699 340.5 L 700.5 338 L 704.5 337 L 709 339.5 L 710.5 342 L 719.5 341 L 724.5 342 L 725.5 341 L 733.5 341 L 739 345.5 L 740 347.5 L 740 359.5 L 737.5 363 L 733.5 364 Q 732.3 361.8 727.5 363 L 725.5 364 L 720.5 363 L 719.5 364 L 711.5 364 L 709.5 364 L 702.5 364 Q 699.4 369.4 689.5 368 L 682.5 363 L 677.5 363 L 676.5 364 L 662.5 364 L 657.5 363 L 656.5 364 L 645.5 364 L 642.5 363 L 641.5 364 L 630 364.5 L 634 366.5 L 635 370 Q 643.5 368.6 647 373.5 Q 649.8 376.2 649 382.5 L 647 391 Q 643.8 394 635.5 393 L 630.5 392 Q 628.8 394.8 622.5 393 L 617.5 392 L 615.5 393 L 611.5 391 Q 609.8 393.8 604.5 393 L 601.5 391 Q 599.2 394.2 592.5 393 L 587.5 392 L 586.5 393 L 572.5 393 Q 571.3 390.8 566.5 392 L 565.5 393 L 544.5 393 L 541 390.5 L 540 388.5 L 540 369.5 L 542.5 366 L 548.5 365 L 552 367.5 L 553 373 L 558.5 370 L 565.5 370 L 570.5 371 L 572.5 370 Q 573.8 372.3 578.5 371 L 582.5 365 L 586.5 364 L 592 367.5 L 592.5 370 L 603.5 370 L 606.5 372 L 610 369.5 L 612.5 365 L 616.5 364 L 621.5 365 L 630 363.5 L 627 361.5 L 626 359.5 L 626 340.5 L 628.5 337 L 634.5 336 L 638 338.5 L 639 345 L 645.5 341 L 656.5 341 L 661.5 342 L 664 341 L 666.5 336 L 669.5 335 Z M 668 338 Q 665 340 668 341 Q 671 340 668 338 Z M 629 339 L 629 357 L 639 357 L 639 355 L 631 355 L 631 340 L 629 339 Z M 702 340 L 701 344 L 698 345 Q 702 347 700 355 L 703 357 L 706 356 L 702 355 L 702 346 L 706 346 Q 707 342 702 344 L 702 340 Z M 646 344 L 644 345 Q 640 347 641 354 L 646 357 L 651 356 L 651 354 Q 649 356 645 355 L 643 353 L 643 351 L 651 351 L 651 348 L 650 348 L 650 349 L 643 349 L 645 346 L 650 347 L 650 345 L 646 344 Z M 653 344 L 656 350 L 653 356 L 654 357 L 656 354 L 659 352 L 661 357 L 663 357 L 659 351 Q 660 348 658 349 L 655 346 Q 656 343 653 344 Z M 661 344 L 661 346 L 663 345 L 661 344 Z M 668 344 L 667 357 L 668 357 L 668 344 Z M 674 344 L 674 357 L 674 348 L 675 347 L 674 344 Z M 678 344 L 675 346 Q 680 345 681 348 L 681 357 L 683 357 Q 684 349 682 345 L 678 344 Z M 690 344 L 688 345 L 686 349 L 688 350 Q 686 344 693 346 L 694 349 Q 693 351 688 351 L 694 351 Q 696 350 695 346 L 697 346 L 690 344 Z M 713 344 L 711 345 Q 707 347 708 354 L 713 357 L 717 356 Q 720 354 719 348 Q 717 344 713 344 Z M 724 344 L 724 357 L 724 348 L 725 347 L 724 344 Z M 728 344 L 725 346 Q 730 345 731 348 L 731 357 L 733 357 Q 734 349 732 345 L 728 344 Z M 661 346 L 659 349 L 661 348 L 661 346 Z M 688 352 L 687 356 L 689 355 L 695 356 L 694 359 L 687 359 L 687 357 L 685 358 L 686 360 L 689 361 L 695 360 Q 697 359 696 355 L 688 354 L 688 352 Z M 585 367 L 583 369 L 585 370 L 585 367 Z M 615 367 L 613 369 L 615 370 L 615 367 Z M 621 367 L 620 386 L 621 386 L 621 367 Z M 627 367 L 626 386 L 627 386 L 627 367 Z M 543 368 L 543 386 L 553 386 L 553 384 L 545 384 L 545 369 L 543 368 Z M 559 373 L 557 374 L 554 379 L 555 384 L 559 386 L 564 385 L 566 381 L 565 376 Q 564 372 559 373 Z M 570 373 L 569 384 L 572 386 L 576 385 L 571 384 Q 569 381 570 373 Z M 577 373 L 577 383 L 576 384 L 579 386 L 579 374 L 577 373 Z M 583 373 L 583 386 L 585 386 L 585 374 L 583 373 Z M 593 373 L 591 374 L 589 378 Q 590 380 594 380 Q 598 382 595 384 L 590 383 L 589 385 L 592 386 L 596 385 Q 598 384 597 380 Q 592 380 590 377 Q 592 374 597 375 L 593 373 Z M 600 373 Q 600 380 605 386 L 610 375 Q 611 372 608 373 L 605 383 L 600 373 Z M 613 373 L 613 386 L 615 386 L 615 374 L 613 373 Z M 636 373 L 634 374 L 631 378 L 632 384 L 636 386 L 641 385 L 635 384 L 633 380 L 641 380 L 642 379 L 641 375 L 640 378 L 634 378 L 633 377 Q 635 374 640 375 L 636 373 Z " /><path fill="rgb(0,128,99)" stroke="rgb(0,128,99)" stroke-width="1" opacity="1" d="M 711.5 346 Q 716 345 717 347.5 Q 718.5 353.5 715.5 355 Q 711 356 710 353.5 L 709 349.5 L 711.5 346 Z " /><path fill="rgb(0,128,99)" stroke="rgb(0,128,99)" stroke-width="1" opacity="1" d="M 557.5 375 Q 563.6 373.8 563 376.5 L 564 381.5 L 563 384 Q 557.6 385.5 556 382.5 Q 554.5 376.5 557.5 375 Z " /><path fill="rgb(0,129,100)" stroke="rgb(0,129,100)" stroke-width="1" opacity="1" d="M 555.5 57 L 561 60.5 L 565 96.5 L 566 97.5 L 566 104.5 L 567 105.5 L 568 121.5 L 569 122.5 L 569 129.5 L 570 130.5 L 570 137.5 L 571 138.5 L 571 145.5 L 572 146.5 L 572 153.5 L 573 154.5 L 573 161.5 L 574 162.5 L 576 186.5 L 577 187.5 L 577 194.5 L 578 195.5 L 578 202.5 L 579 203.5 L 579 210.5 L 580 211.5 L 580 219.5 L 581 220.5 L 581 227.5 L 582 228.5 L 582 235.5 L 585 252.5 L 585 259.5 L 586 260.5 L 586 271.5 L 584 277.5 L 584 282.5 L 589 289.5 L 589 294.5 L 587.5 296 L 575.5 296 L 571 299.5 L 571 306 L 568.5 306 L 560.5 299 L 554 303.5 L 552 312.5 L 556 320.5 L 548.5 327 L 544 328 Q 541.3 330.6 542 337.5 L 538.5 342 L 536.5 342 L 532 346.5 L 527 358.5 L 527 366 Q 524.6 367.8 518.5 367 L 516.5 365 L 511.5 364 L 504.5 357 L 501.5 357 L 496.5 364 L 491 368.5 L 490 373 L 486 375.5 L 485 378.5 L 486 384 L 483 382.5 L 481.5 379 L 477 377 L 474.5 373 L 472.5 373 L 468.5 377 L 463 379.5 L 461.5 382 Q 457 381 456 383.5 L 456 391.5 L 453.5 392 L 448.5 387 L 443.5 387 L 436.5 382 Q 427.4 383.9 423 390.5 Q 424.1 393.8 421.5 393 L 412.5 390 L 408 393.5 L 405.5 399 Q 398.5 400.5 399 397.5 L 398 396.5 L 398 384.5 Q 403.5 379.5 402 367.5 L 401 362.5 L 408 356.5 L 417 340.5 L 419 332.5 L 423.5 328 L 426 326.5 L 427 317.5 L 421 308.5 Q 423.3 295.7 417.5 291 L 414 288.5 L 413 282.5 L 418 272.5 L 420 255.5 L 419 254.5 L 419 244.5 L 418 243.5 L 418 234.5 L 417 233.5 L 417 224.5 L 416 223.5 L 416 214.5 L 414 203.5 L 414 193.5 L 413 192.5 L 413 183.5 L 412 182.5 L 412 173.5 L 411 172.5 L 411 163.5 L 410 162.5 L 410 153.5 L 409 152.5 L 409 142.5 L 408 141.5 L 408 132.5 L 407 131.5 L 407 122.5 L 406 121.5 L 403 82 L 410.5 84 L 418.5 84 Q 431.7 80.7 439.5 72 L 446.5 70 L 479.5 67 L 496.5 64 L 512.5 63 L 513.5 62 L 521.5 62 L 522.5 61 L 546.5 59 L 555.5 57 Z M 467 171 L 467 207 L 468 207 L 475 207 L 475 172 L 475 171 L 467 171 Z M 482 171 L 482 207 L 483 207 L 489 207 L 490 184 L 504 204 Q 506 209 513 207 L 513 172 L 513 171 L 506 171 L 506 194 L 489 173 Q 487 170 482 171 Z " /><path fill="rgb(0,129,100)" stroke="rgb(0,129,100)" stroke-width="1" opacity="1" d="M 591.5 268 L 608.5 271 L 615 269 L 619 277.5 L 629.5 292 Q 633.5 295 641.5 294 L 651.5 292 Q 657.2 300.3 668.5 303 L 674 298.5 L 676.5 294 L 683.5 298 L 688.5 299 L 695 295.5 Q 694.4 292.8 700.5 294 L 704.5 289 L 709.5 286 L 715.5 293 Q 717.8 292.3 717 294.5 L 721.5 299 Q 727.3 299.3 730 302.5 L 734 308.5 L 734 317.5 L 737 328.5 L 747 340.5 L 755 358.5 L 761.5 366 L 768.5 370 L 782 373 L 763.5 395 L 745 408.5 Q 743.9 417.9 737.5 422 Q 735.3 421.3 736 423.5 Q 733.5 425 735 430.5 L 733.5 432 L 727.5 433 L 723 436.5 L 718.5 447 L 712.5 446 L 692.5 461 Q 687.8 459.7 686.5 462 L 679.5 462 L 678.5 463 L 671.5 463 L 670.5 464 L 663.5 464 L 662.5 465 L 655.5 465 L 654.5 466 L 647.5 466 L 630.5 469 L 622.5 469 L 613.5 471 L 605.5 471 L 596.5 473 L 561.5 476 L 560.5 477 L 521.5 480 L 520.5 481 L 486.5 483 L 485.5 484 L 473.5 484 L 472.5 485 L 459.5 485 L 458.5 486 L 441.5 486 L 432.5 488 L 425.5 493 Q 420.7 486.3 408.5 487 L 403 490.5 L 403 494.5 L 406 504 L 400.5 505 L 388.5 505 L 387.5 506 L 375.5 506 L 374.5 507 L 324.5 509 L 322 507.5 Q 322.8 505.3 326.5 506 L 328.5 507 Q 334.2 502.7 333 491.5 Q 330.8 490.3 333.5 489 Q 337.5 489.5 338 486.5 L 339 480.5 L 336 471.5 L 336 465.5 L 339.5 460 L 342.5 458 Q 347.2 459.3 348.5 457 L 358.5 459 L 366.5 464 L 372.5 464 Q 379 460.5 380 451.5 L 376 444.5 L 374 434.5 L 377.5 431 Q 386.5 427.5 398.5 427 L 401 424.5 L 401 421.5 L 394 413.5 L 399 407.5 L 400 402 L 408.5 402 L 410 400.5 L 411 395 L 415.5 394 L 424.5 397 L 429.5 389 L 437.5 386 Q 439.8 391.2 447.5 391 L 452.5 396 L 456.5 396 Q 460.7 394.7 460 388.5 L 459 386 L 463.5 385 L 473.5 378 L 480 382 L 481 387 L 487.5 388 L 489 386.5 L 489 377.5 L 490.5 376 L 494 373.5 Q 494.3 368.8 497.5 367 L 502 363.5 L 503.5 361 L 507.5 366 L 517.5 371 L 523.5 371 L 530 369 L 531 365.5 L 530 362.5 Q 531.6 352.1 537.5 346 L 544 341.5 Q 546.6 338.6 546 332.5 L 547.5 331 L 553 328.5 L 554.5 326 L 559 324 Q 560.5 316.3 556 313.5 L 556 307.5 L 559.5 303 L 567.5 310 L 571.5 310 Q 576.3 307.5 575 300 L 590.5 299 L 592 297.5 L 593 291.5 L 591 285.5 L 588 282.5 L 588 276.5 L 589 271.5 L 591.5 268 Z M 670 335 L 667 336 L 664 341 L 662 342 L 657 341 L 646 341 L 639 345 L 638 339 L 635 336 L 629 337 L 626 341 L 626 360 L 627 362 L 631 364 L 642 364 L 643 363 L 646 364 L 657 364 L 658 363 L 663 364 L 677 364 L 678 363 L 683 363 L 690 368 Q 699 369 703 364 L 710 364 L 712 364 L 720 364 L 721 363 L 726 364 L 728 363 Q 732 362 734 364 L 738 363 L 740 360 L 740 348 L 739 346 L 734 341 L 726 341 L 725 342 L 720 341 L 711 342 L 709 340 L 705 337 L 701 338 L 699 341 Q 698 343 697 341 Q 691 340 690 342 Q 685 343 684 341 L 677 341 L 676 339 Q 674 335 670 335 Z M 613 338 L 610 345 L 604 346 L 608 352 L 607 358 L 613 355 L 620 357 L 619 354 Q 618 347 623 346 L 617 344 L 613 338 Z M 545 343 L 544 348 L 536 351 L 540 353 L 541 355 L 542 362 L 547 359 L 553 361 L 552 356 L 557 350 L 549 348 L 547 345 Q 548 342 545 343 Z M 586 364 L 583 365 L 579 371 Q 574 372 573 370 L 571 371 L 566 370 L 559 370 L 553 373 L 552 368 L 549 365 L 543 366 L 540 370 L 540 389 L 541 391 L 545 393 L 566 393 L 567 392 Q 571 391 573 393 L 587 393 L 588 392 L 593 393 Q 599 394 602 391 L 605 393 Q 610 394 612 391 L 616 393 L 618 392 L 623 393 Q 629 395 631 392 L 636 393 Q 644 394 647 391 L 649 383 Q 650 376 647 374 Q 644 369 635 370 L 634 367 L 630 364 Q 623 362 622 365 L 617 364 L 613 365 L 610 370 L 607 372 L 604 370 L 593 370 L 592 368 Q 590 364 586 364 Z M 465 417 L 465 450 L 473 450 L 473 437 L 476 436 L 485 449 L 487 450 L 494 450 L 482 434 L 490 422 L 494 419 L 504 437 L 504 450 L 512 450 L 512 437 L 524 418 L 517 417 L 509 432 L 502 420 L 500 417 L 486 417 L 475 431 L 473 431 L 473 417 L 465 417 Z " /><path fill="rgb(0,129,100)" stroke="rgb(0,129,100)" stroke-width="1" opacity="1" d="M 808.5 447 Q 813 446.5 813 447.5 L 813 460.5 L 810 467 L 803 472.5 Q 800.3 482.8 793.5 489 L 789.5 484 L 780.5 483 L 773 489.5 L 770 503 L 764.5 504 L 759.5 497 Q 754.8 496.3 754 499.5 Q 755.3 505.8 751.5 507 Q 745 507 742 510.5 L 742 515.5 L 740 522 L 730.5 525 L 716 538.5 L 708.5 547 L 696.5 546 Q 689.5 548 685.5 553 Q 679 553 676 556.5 L 677 571.5 L 674.5 574 L 665.5 575 L 660 578.5 L 660 596.5 L 657.5 597 L 656.5 598 L 613.5 602 L 604.5 604 L 596.5 604 L 595.5 605 L 587.5 605 L 586.5 606 L 578.5 606 L 577.5 607 L 569.5 607 L 559.5 609 L 550.5 609 L 549.5 610 L 541.5 610 L 540.5 611 L 532.5 611 L 522.5 613 L 513.5 613 L 503.5 615 L 494.5 615 L 484.5 617 L 435.5 621 L 434.5 622 L 424.5 622 L 423.5 623 L 381.5 626 L 380.5 627 L 369.5 627 L 368.5 628 L 357.5 628 L 356.5 629 L 345.5 629 L 344.5 630 L 278.5 634 L 279 632.5 L 280.5 630 L 289 624.5 L 290 620.5 L 289 615.5 L 285.5 611 L 280 607.5 Q 279 602 282.5 601 L 287 598.5 L 290 589.5 L 294 585.5 L 294 580.5 L 293 578 L 299 574.5 Q 304.7 567.7 306 556.5 L 303 548.5 Q 308.1 545.1 306 534.5 L 311 529.5 L 312 517.5 L 309 511 L 312.5 512 L 354.5 512 L 355.5 511 L 370.5 511 L 371.5 510 L 406.5 508 L 409 505.5 L 410 502.5 L 407 491 L 415.5 491 L 427.5 497 L 437.5 490 L 453.5 490 L 454.5 489 L 469.5 489 L 470.5 488 L 506.5 486 L 507.5 485 L 517.5 485 L 518.5 484 L 527.5 484 L 528.5 483 L 537.5 483 L 538.5 482 L 547.5 482 L 548.5 481 L 557.5 481 L 558.5 480 L 611.5 475 L 612.5 474 L 619.5 474 L 620.5 473 L 636.5 472 L 637.5 471 L 676.5 467 L 684.5 465 L 691.5 465 L 698.5 463 L 720.5 461 L 742.5 457 L 749.5 457 L 750.5 456 L 783.5 452 L 808.5 447 Z M 460 542 L 460 547 L 470 547 L 470 548 L 470 575 L 478 575 L 478 575 L 478 547 L 487 547 L 487 542 L 460 542 Z M 491 542 L 491 575 L 492 575 L 498 575 L 499 554 L 511 571 Q 513 576 520 575 L 520 543 L 520 542 L 514 542 L 514 563 L 499 545 Q 497 541 491 542 Z " /></svg>