<svg xmlns="http://www.w3.org/2000/svg" id="LOGO" viewBox="0 0 72 72"><defs><style>.cls-1{fill:#1c75bc;}.cls-2{fill:#a7a9ac;}</style></defs><path class="cls-1" d="M15.59,42.54H9.35a3.05,3.05,0,0,1-3.11-3.12h9.35V36.3H9.35a3.05,3.05,0,0,1-3.11-3.12V30.07A3,3,0,0,1,9.35,27h6.24a3,3,0,0,1,3.12,3.12H9.35v3.11h6.24a3.06,3.06,0,0,1,3.12,3.12v3.12A3.06,3.06,0,0,1,15.59,42.54Zm2.09-6.24c.09-2.09-2.09-2-2.09-2.09H8.33V29h9.1A1.8,1.8,0,0,0,15.59,28H9.35s-2.18,0-2.08,2.09v3.11s0,2.19,2.08,2.09h7.27v5.18H7.52a1.7,1.7,0,0,0,1.83,1.06h6.24c2.09.09,2.06-2.09,2.09-2.09Z"></path><path class="cls-1" d="M33.29,48.77H27.06a3,3,0,0,1-3.12-3.11V44.1A3.06,3.06,0,0,1,27.06,41V39.42a3.06,3.06,0,0,1-3.12-3.12V30.07A3.06,3.06,0,0,1,27.06,27h9.35V36.3c0,3-3.12,3.12-3.12,3.12H30.18V41h3.11a3,3,0,0,1,3.12,3.12v1.56A3.05,3.05,0,0,1,33.29,48.77Zm2.09-4.67s0-2.16-2.09-2.09H29.15V38.39h4.11s2.22-.12,2.12-2.09V28H27.06S24.88,28,25,30.07V36.3c-.09,2.09,2.09,2.06,2.09,2.09h1V42h-1S24.88,42,25,44.1v1.56s0,2.18,2.09,2.08h6.23s2.19,0,2.09-2.08ZM26,37.33V29h8.29v8.29Zm0,9.35V43.07h8.29v3.61Zm7.26-16.61H27.06V36.3h6.23Zm0,14H27.06v1.56h6.23Z"></path><path class="cls-1" d="M51,42.54H44.77a3.06,3.06,0,0,1-3.12-3.12H51V36.3H44.77a3.06,3.06,0,0,1-3.12-3.12V30.07A3.06,3.06,0,0,1,44.77,27H51a3,3,0,0,1,3.12,3.12H44.77v3.11H51a3.06,3.06,0,0,1,3.12,3.12v3.12A3.06,3.06,0,0,1,51,42.54Zm2.09-6.24c.09-2.09-2.09-2-2.09-2.09H43.74V29h9.1A1.8,1.8,0,0,0,51,28H44.77s-2.19,0-2.09,2.09v3.11s0,2.19,2.09,2.09H52v5.18h-9.1a1.72,1.72,0,0,0,1.84,1.06H51c2.09.09,2.06-2.09,2.09-2.09Z"></path><path class="cls-2" d="M5.46,16.34H7.9a3,3,0,0,1,3,3v2.44a3,3,0,0,1-3,3H5.46a3,3,0,0,1-3-3V19.39A3,3,0,0,1,5.46,16.34Z"></path><path class="cls-2" d="M14.76,16.34h2.43a3,3,0,0,1,3,3v2.44a3,3,0,0,1-3,3H14.76a3,3,0,0,1-3-3V19.39A3,3,0,0,1,14.76,16.34Z"></path><path class="cls-2" d="M24.06,16.34h2.43a3,3,0,0,1,3,3v2.44a3,3,0,0,1-3,3H24.06a3,3,0,0,1-3-3V19.39A3,3,0,0,1,24.06,16.34Z"></path><path class="cls-2" d="M33.36,16.34h2.43a3,3,0,0,1,3,3v2.44a3,3,0,0,1-3,3H33.36a3,3,0,0,1-3-3V19.39A3,3,0,0,1,33.36,16.34Z"></path><path class="cls-2" d="M42.6,16.34H45a3,3,0,0,1,3,3v2.44a3,3,0,0,1-3,3H42.6a3,3,0,0,1-3-3V19.39A3,3,0,0,1,42.6,16.34Z"></path><path class="cls-2" d="M51.9,16.34h2.43a3,3,0,0,1,3,3v2.44a3,3,0,0,1-3,3H51.9a3,3,0,0,1-3-3V19.39A3,3,0,0,1,51.9,16.34Z"></path><rect class="cls-2" x="58.15" y="16.34" width="8.52" height="8.53" rx="3.04"></rect><rect class="cls-2" x="58.15" y="25.71" width="8.52" height="8.53" rx="3.04"></rect><path class="cls-2" d="M61.2,35.08h2.43a3,3,0,0,1,3,3v2.44a3,3,0,0,1-3,3H61.19a3,3,0,0,1-3-3V38.13a3,3,0,0,1,3-3Z"></path><path class="cls-2" d="M61.12,44.5h2.43a3,3,0,0,1,3,3V50a3,3,0,0,1-3,3H61.12a3,3,0,0,1-3-3V47.55A3,3,0,0,1,61.12,44.5Z"></path><rect class="cls-2" x="39.54" y="44.5" width="8.53" height="8.53" rx="3.04"></rect><path class="cls-2" d="M51.88,44.5h2.43a3,3,0,0,1,3,3V50a3,3,0,0,1-3,3H51.88a3,3,0,0,1-3-3V47.55A3,3,0,0,1,51.88,44.5Z"></path></svg>