<svg xmlns="http://www.w3.org/2000/svg" viewBox="0 0 898.18 250.26"><defs><style>.cls-1{fill:#ffffff;}</style></defs><title>ema2</title><g id="Capa_2" data-name="Capa 2"><g id="Capa_1-2" data-name="Capa 1"><path class="cls-1" d="M154.36.2V38.7c-1.92.09-3.83.23-5.74.27-16.31.31-32.73-.44-48.92,1.15-22.61,2.22-42.14,11.2-54,32-2.74,4.79-4.42,10.19-7,16.17H153.53v39.34H39.11c1.14,14.66,6.07,27,15.62,37.36,13.41,14.51,30.71,21.31,49.93,21.77,35.64.84,71.31.68,107,.7,65.16,0,130.32-.32,195.48-.09,29.46.11,57.37-26.85,59.94-57.13.06-.63,0-1.27,0-2.24H383.62V165.8H347V0c1.79,0,3.41,0,5,0q26.5,0,53,0c41.21-.1,87.85,24,100.1,79.65,8,36.56,1.47,70.56-17.25,102.22-17.15,29-43.66,42.87-77.13,43.81-4,.11-8,.07-12,.07-96.16,0-192.32-.63-288.47.25-51.57.48-85.65-28.45-100.78-68.74C-4.95,118.86-3.74,81,18.9,45.77,33.81,22.52,55.54,8,82.48,1.57A40.87,40.87,0,0,1,91.86.26C112.5.14,133.15.2,154.36.2ZM383.79,88H466a56.28,56.28,0,0,0-.7-6.19c-3.64-15.9-12.75-27.58-27.35-34.87-11.71-5.86-24.36-7.56-37.25-7.93-5.59-.16-11.18,0-16.88,0Z"/><path class="cls-1" d="M202.67,61.54V165.78H166.75V.05c11.35,0,22.63-.1,33.9.13,1.28,0,2.69,1.75,3.75,2.94q20.37,23,40.64,46.09c1.63,1.86,3.31,3.67,5.19,5.74,10.34-11.82,20.42-23.34,30.49-34.87,5.14-5.9,10.21-11.86,15.46-17.67,1-1.1,2.63-2.27,4-2.29,11-.18,21.94-.1,33.33-.1V165.79H297.89V64l-1.25-.76-46.45,48.89Z"/><path class="cls-1" d="M563.05,153.59v7.76H530.72V119.59h31.56v7.76h-22v9.06h19.39v7.52H540.32v9.66Z"/><path class="cls-1" d="M569.55,119.59h9.66v33.88h20.94v7.88h-30.6Z"/><path class="cls-1" d="M636.71,153.59v7.76H604.38V119.59h31.55v7.76H614v9.06h19.39v7.52H614v9.66Z"/><path class="cls-1" d="M640.46,140.47c0-12.59,9.66-21.59,22.67-21.59,7.22,0,13.24,2.62,17.18,7.39L674.1,132a13.42,13.42,0,0,0-10.49-4.89c-7.82,0-13.37,5.49-13.37,13.36s5.55,13.36,13.37,13.36a13.29,13.29,0,0,0,10.49-5l6.21,5.73c-3.94,4.83-10,7.45-17.24,7.45C650.12,162.06,640.46,153.05,640.46,140.47Z"/><path class="cls-1" d="M693.84,127.47H680.48v-7.88h36.39v7.88H703.5v33.88h-9.66Z"/><path class="cls-1" d="M747.46,161.35l-8.05-11.64h-8.89v11.64h-9.66V119.59h18.07c11.16,0,18.14,5.79,18.14,15.15a13.59,13.59,0,0,1-8.59,13.19l9.36,13.42Zm-9.06-33.88h-7.88V142h7.88c5.9,0,8.88-2.74,8.88-7.28S744.3,127.47,738.4,127.47Z"/><path class="cls-1" d="M760.88,140.47c0-12.41,9.66-21.59,22.84-21.59s22.85,9.12,22.85,21.59-9.72,21.59-22.85,21.59S760.88,152.88,760.88,140.47Zm35.91,0c0-7.93-5.61-13.36-13.07-13.36s-13.06,5.43-13.06,13.36,5.61,13.36,13.06,13.36S796.79,148.4,796.79,140.47Z"/><path class="cls-1" d="M568.72,226.68l-.06-25.05-12.29,20.64H552l-12.23-20.1v24.51h-9.07V184.93h8l15.63,25.95,15.39-25.95h7.93l.12,41.75Z"/><path class="cls-1" d="M618.82,218.93v7.75H586.49V184.93H618v7.75H596.09v9.07h19.39v7.52H596.09v9.66Z"/><path class="cls-1" d="M622.57,205.81c0-12.59,9.66-21.6,22.67-21.6,7.21,0,13.24,2.63,17.17,7.4l-6.2,5.73a13.43,13.43,0,0,0-10.5-4.89c-7.81,0-13.36,5.48-13.36,13.36s5.55,13.36,13.36,13.36a13.3,13.3,0,0,0,10.5-4.95l6.2,5.72c-3.93,4.83-10,7.46-17.23,7.46C632.23,227.4,622.57,218.39,622.57,205.81Z"/><path class="cls-1" d="M706,184.93v41.75h-9.66V209.56h-19v17.12h-9.66V184.93h9.66v16.46h19V184.93Z"/><path class="cls-1" d="M742.21,217.74H722.83l-3.7,8.94h-9.9l18.61-41.75h9.54l18.67,41.75H745.91Zm-3-7.34-6.62-16-6.62,16Z"/><path class="cls-1" d="M797.5,184.93v41.75h-7.93l-20.82-25.35v25.35h-9.54V184.93h8L788,210.28V184.93Z"/><path class="cls-1" d="M806.21,184.93h9.66v41.75h-9.66Z"/><path class="cls-1" d="M822,205.81c0-12.59,9.67-21.6,22.67-21.6,7.22,0,13.24,2.63,17.18,7.4l-6.21,5.73a13.42,13.42,0,0,0-10.49-4.89c-7.82,0-13.36,5.48-13.36,13.36s5.54,13.36,13.36,13.36a13.29,13.29,0,0,0,10.49-4.95l6.21,5.72c-3.94,4.83-10,7.46-17.24,7.46C831.62,227.4,822,218.39,822,205.81Z"/><path class="cls-1" d="M863.46,222.57l3.28-7.28a24.6,24.6,0,0,0,13.78,4.35c5.73,0,8.05-1.9,8.05-4.47,0-7.81-24.27-2.45-24.27-17.95,0-7.1,5.73-13,17.59-13,5.25,0,10.62,1.26,14.5,3.7l-3,7.34A23.58,23.58,0,0,0,881.83,192c-5.72,0-7.93,2.15-7.93,4.77,0,7.69,24.28,2.39,24.28,17.71,0,7-5.79,13-17.72,13C873.84,227.4,867.16,225.43,863.46,222.57Z"/><rect class="cls-1" x="39.89" y="245.26" width="816.03" height="5"/></g></g></svg>